# xmcd CD database file
#
# Track frame offsets:
#	150
#	16221
#	32443
#	42994
#	59585
#	75729
#	94939
#	111356
#	130463
#	145940
#	158284
#	173781
#	185711
#	197978
#	215822
#	233997
#	251236
#	264913
#	277343
#	292086
#
# Disc length: 4036 seconds
#
# Revision: 0
# Processed by: cddbd v1.5.2PL0 Copyright (c) Steve Scherf et al.
# Submitted via: CDex 1.70beta2
#
DISCID=370fc214
DTITLE=Various Artist - Country Ballads - CD2
DYEAR=1900
DGENRE=Country
TTITLE0=Vince Gill - Cinderella
TTITLE1=Merle Haggard and George Jones - C.C. Waterback
TTITLE2=Tammy Wybette and George Jones - Near You
TTITLE3=Dan Fogelberg - The Language Of Love
TTITLE4=Exile - Kiss You All Over
TTITLE5=T.G. Sheppard - One For The Money
TTITLE6=Alabama - Mountain Music
TTITLE7=Kris Kristofferson - Me And Bobby McGee
TTITLE8=The Tractors - Linda Lou
TTITLE9=Lorrie Morgan - What Part Of No
TTITLE10=The Charlie Daniels Band - Boogie Woogie Fiddle Country Blues
TTITLE11=Willie Nelson - Funny How Time Slip Away
TTITLE12=Charlie Rich - The Most Beautiful Girl
TTITLE13=John Conlee - Domestic Life
TTITLE14=Dolly Parton - The River Unbroken
TTITLE15=Ricky Skaggs - Country Boy
TTITLE16=New Riders Of The Purple Sage - Louisiana Lady
TTITLE17=Jerry Reed - East Bound And Down
TTITLE18=Rosanne Cash - Seven Year Ache
TTITLE19=Patsy Cline - Honky Tonk Merry Go Round
EXTD=
EXTT0=
EXTT1=
EXTT2=
EXTT3=
EXTT4=
EXTT5=
EXTT6=
EXTT7=
EXTT8=
EXTT9=
EXTT10=
EXTT11=
EXTT12=
EXTT13=
EXTT14=
EXTT15=
EXTT16=
EXTT17=
EXTT18=
EXTT19=
PLAYORDER=
